<svg width="339" height="49" viewBox="0 0 339 49" fill="none" xmlns="http://www.w3.org/2000/svg">
<rect x="0.310547" y="0.14502" width="48" height="48" rx="4" fill="#2D2D2D"/>
<g clip-path="url(#clip0_112185_219850)">
<path d="M12.9397 15.8565C12.8823 14.206 14.1681 12.6841 15.9062 12.6841H33.7167C35.4549 12.6841 36.7407 14.206 36.6833 15.8565C36.6281 17.4419 36.6997 19.4956 37.2166 21.1701C37.7351 22.8499 38.6094 23.9114 40.0414 24.048V25.5949C38.6094 25.7314 37.7351 26.793 37.2166 28.4728C36.6997 30.1473 36.6281 32.201 36.6833 33.7864C36.7407 35.4369 35.4549 36.9585 33.7167 36.9585H15.9062C14.1681 36.9585 12.8823 35.4366 12.9397 33.7864C12.9949 32.201 12.9232 30.1473 12.4062 28.4728C11.8879 26.7932 11.0112 25.7314 9.5791 25.5949V24.048C11.0112 23.9117 11.8879 22.8499 12.4062 21.1701C12.9232 19.4956 12.9947 17.4419 12.9397 15.8565Z" fill="url(#paint0_linear_112185_219850)"/>
<g filter="url(#filter0_d_112185_219850)">
<path d="M25.5637 31.3625C28.3777 31.3625 30.0734 29.9847 30.0734 27.7121C30.0734 25.9943 28.8635 24.7507 27.067 24.5538V24.4822C28.3869 24.2675 29.4226 23.0418 29.4226 21.6729C29.4226 19.7224 27.8828 18.4519 25.5362 18.4519H20.2566V31.3625H25.5637ZM22.3098 20.0892H25.0413C26.5262 20.0892 27.3694 20.7513 27.3694 21.9502C27.3694 23.2297 26.3887 23.9454 24.6105 23.9454H22.3098V20.0892ZM22.3098 29.7252V25.4753H25.0229C26.9661 25.4753 27.9744 26.1911 27.9744 27.5868C27.9744 28.9825 26.9937 29.7252 25.1421 29.7252H22.3098Z" fill="url(#paint1_linear_112185_219850)"/>
</g>
</g>
<rect x="58.3105" y="0.14502" width="48" height="48" rx="4" fill="#2D2D2D"/>
<path d="M71.2709 35.9011L68.8834 9.125H95.1165L92.7259 35.8968L81.984 38.875L71.2709 35.9011Z" fill="#E44F26"/>
<path d="M82 36.599L90.6806 34.1924L92.7228 11.3147H82V36.599Z" fill="#F1662A"/>
<path d="M82 21.2449H77.6544L77.3548 17.8821H82V14.5979H73.7656L73.8443 15.4798L74.6507 24.5291H82V21.2449ZM82 29.7736L81.9851 29.7778L78.328 28.7908L78.0943 26.1717H74.7973L75.2574 31.327L81.9851 33.1948L82 33.1906V29.7736Z" fill="#EBEBEB"/>
<path d="M81.9883 21.2449V24.5291H86.0322L85.6518 28.7887L81.9883 29.7768V33.1938L88.7213 31.327L88.7702 30.7723L89.5416 22.1268L89.6223 21.2449H81.9883ZM81.9883 14.5979V17.8821H89.9209L89.9868 17.1447L90.1366 15.4798L90.2152 14.5979H81.9883Z" fill="white"/>
<rect x="116.311" y="0.14502" width="48" height="48" rx="4" fill="#2D2D2D"/>
<g clip-path="url(#clip1_112185_219850)">
<path d="M140.212 38.921L129.471 35.9394L127.078 9.09399H153.378L150.982 35.9352L140.212 38.921Z" fill="#264DE4"/>
<path d="M148.931 34.2259L150.978 11.2888H140.228V36.6386L148.931 34.2259Z" fill="#2965F1"/>
<path d="M132.565 21.2456L132.86 24.538H140.228V21.2456H132.565ZM131.972 14.5815L132.271 17.874H140.228V14.5815H131.972ZM140.228 29.7965L140.213 29.8003L136.547 28.8102L136.312 26.1843H133.007L133.468 31.354L140.213 33.2262L140.228 33.2221V29.7965Z" fill="#EBEBEB"/>
<path d="M147.87 21.2456L148.464 14.5815H140.217V17.874H144.856L144.556 21.2456H140.217V24.538H144.271L143.889 28.8081L140.217 29.7993V33.2246L146.966 31.354L147.016 30.7977L147.79 22.1297L147.87 21.2456Z" fill="white"/>
</g>
<rect x="174.311" y="0.14502" width="48" height="48" rx="4" fill="#2D2D2D"/>
<path d="M186.47 40.4649C184.261 40.4649 182.47 38.6741 182.47 36.4649V12.7849C182.47 10.5758 184.261 8.78491 186.47 8.78491H210.15C212.36 8.78491 214.15 10.5758 214.15 12.7849V36.4649C214.15 38.6741 212.36 40.4649 210.15 40.4649H186.47Z" fill="#FFC53D"/>
<path d="M203.184 32.4984C203.793 33.4875 204.454 34.4352 205.856 34.4352C207.034 34.4352 207.652 33.85 207.652 33.0404C207.652 32.0716 207.013 31.7275 205.717 31.1634L205.007 30.8607C202.958 29.9912 201.594 28.9018 201.594 26.6006C201.594 24.4798 203.218 22.8659 205.755 22.8659C207.562 22.8659 208.86 23.4915 209.796 25.1301L207.584 26.5443C207.097 25.6748 206.571 25.3325 205.755 25.3325C204.923 25.3325 204.396 25.8579 204.396 26.5443C204.396 27.3926 204.924 27.7358 206.142 28.2612L206.852 28.5639C209.268 29.5926 210.63 30.6433 210.63 33.0052C210.63 35.5502 208.62 36.945 205.922 36.945C203.283 36.945 201.785 35.6206 200.95 33.9812L203.184 32.4984ZM192.988 32.5705C193.433 33.3678 194.11 33.9812 195.083 33.9812C196.014 33.9812 196.55 33.6133 196.55 32.1833V22.865H199.483V32.6339C199.483 35.5968 197.765 36.945 195.255 36.945C192.987 36.945 191.35 35.4085 190.683 33.9812L192.988 32.5705Z" fill="#000001"/>
<rect x="232.311" y="0.14502" width="48" height="48" rx="4" fill="#2D2D2D"/>
<g clip-path="url(#clip2_112185_219850)">
<path d="M259.453 37.9986L259.739 33.2224L260.531 31.8713C260.531 31.8713 258.729 32.6082 255.714 32.6082C252.698 32.6082 250.924 31.8849 250.924 31.8849L251.811 33.3588L252.124 37.9986C252.124 38.496 253.765 38.8992 255.789 38.8992C257.812 38.8992 259.453 38.496 259.453 37.9986ZM258.548 15.6943L259.15 13.3162L262.482 9.81044L261.604 9.0625L258.076 12.797L257.378 15.6382C256.852 15.6206 256.326 15.6118 255.8 15.612C252.085 15.612 249.073 16.0353 249.073 16.5575C249.073 17.0796 252.085 17.503 255.8 17.503C259.515 17.503 262.526 17.0797 262.526 16.5575C262.526 16.173 260.893 15.842 258.548 15.6943Z" fill="#D34A47"/>
<path d="M258.198 17.0261C258.198 17.0261 258.068 17.0553 257.685 17.0569C257.301 17.0585 257.029 17.0545 256.921 16.9557C256.892 16.9292 256.876 16.8765 256.876 16.8409C256.876 16.773 256.924 16.733 256.986 16.708L257.044 16.799C257.018 16.8078 257.004 16.8181 257.004 16.829C257.004 16.8806 257.396 16.9159 257.696 16.9121C257.996 16.9084 258.359 16.8837 258.359 16.8328C258.359 16.8175 258.331 16.803 258.284 16.7916L258.342 16.7012C258.419 16.7253 258.487 16.7719 258.487 16.8527C258.486 16.9899 258.312 17.0107 258.198 17.0261Z" fill="white"/>
<path d="M262.475 9.81733C262.559 9.72057 262.432 9.47307 262.191 9.2646C261.95 9.05623 261.687 8.96571 261.604 9.06247C261.52 9.15923 261.647 9.40673 261.888 9.61509C262.128 9.82351 262.391 9.91414 262.475 9.81733ZM259.292 26.3322C259.213 25.5724 260.954 24.4722 260.507 24.4369C259.546 24.4919 259.067 25.5639 258.583 26.6867C258.406 27.0982 257.799 28.8529 257.401 28.6369C257.003 28.421 257.917 26.9781 258.173 26.1212C257.877 26.3378 256.794 27.1797 256.515 26.3913C256.066 26.7726 255.106 26.9791 255.215 25.9776C254.976 26.4006 254.44 26.9913 253.796 26.7458C252.951 26.4236 254.286 23.732 254.618 23.8678C254.95 24.0036 254.551 24.6167 254.446 24.8548C254.217 25.3788 253.951 26.0375 254.129 26.1723C254.432 26.4034 255.259 25.2984 255.277 25.2741C255.432 25.0698 255.872 23.7336 256.227 23.8871C256.582 24.0405 255.342 25.8047 255.806 26.1549C255.899 26.2255 256.282 26.1113 256.515 25.8594C256.665 25.6965 256.613 25.3356 257.116 24.1381C257.618 22.9407 258.065 21.4495 258.41 21.5631C258.754 21.6766 258.47 22.442 258.347 22.7273C257.767 24.0664 256.764 26.2788 257.237 26.1113C257.71 25.9439 257.956 25.934 258.419 25.3923C258.882 24.8505 258.861 23.9582 259.169 23.9772C259.478 23.9962 259.426 24.2823 259.351 24.5002C259.655 24.1526 260.791 23.4207 261.065 24.1456C261.39 25.0038 259.44 26.2435 259.926 26.1803C260.4 26.1186 261.168 25.6322 261.496 25.19L262.399 17.076C262.399 17.076 261.49 17.8275 255.712 17.8275C249.935 17.8275 249.12 17.0916 249.12 17.0916L249.889 24.4978C250.297 23.3386 251.265 20.994 252.792 21.0727C253.486 21.1085 254.413 22.4456 253.619 22.491C253.283 22.5101 253.249 21.8235 252.851 21.7227C252.564 21.6499 252.164 21.8834 251.905 22.1364C251.39 22.6408 250.281 24.6309 250.428 25.623C250.614 26.888 252.173 25.1835 252.437 24.6775C252.623 24.321 252.748 23.2649 253.155 23.3757C253.561 23.4865 253.119 24.5764 252.825 25.5401C252.494 26.6221 252.32 27.7636 251.905 27.6323C251.491 27.5011 252.166 26.1042 252.142 25.8594C251.752 26.219 251.034 27.1295 250.115 26.6789L250.592 31.278C250.592 31.278 251.861 32.2801 255.681 32.2801C259.502 32.2801 260.817 31.2937 260.817 31.2937L261.41 25.9667C260.925 26.4388 259.39 27.2771 259.292 26.3322Z" fill="#D34A47"/>
</g>
<rect x="290.311" y="0.14502" width="48" height="48" rx="4" fill="#2D2D2D"/>
<g clip-path="url(#clip3_112185_219850)">
<path d="M310.335 36.9999C312.727 36.9999 314.668 35.0586 314.668 32.6666V28.3333H310.335C307.943 28.3333 306.002 30.2746 306.002 32.6666C306.002 35.0586 307.943 36.9999 310.335 36.9999Z" fill="#73D13D"/>
<path d="M306.002 24.0001C306.002 21.6081 307.943 19.6667 310.335 19.6667H314.668V28.3334H310.335C307.943 28.3334 306.002 26.3921 306.002 24.0001Z" fill="#A259FF"/>
<path d="M306.002 15.3333C306.002 12.9413 307.943 11 310.335 11H314.669V19.6667H310.335C307.943 19.6667 306.002 17.7253 306.002 15.3333Z" fill="#FF4D4F"/>
<path d="M314.668 11H319.002C321.394 11 323.335 12.9413 323.335 15.3333C323.335 17.7253 321.394 19.6667 319.002 19.6667H314.668V11Z" fill="#FF7875"/>
<path d="M323.335 24.0001C323.335 26.3921 321.394 28.3334 319.002 28.3334C316.61 28.3334 314.668 26.3921 314.668 24.0001C314.668 21.6081 316.61 19.6667 319.002 19.6667C321.394 19.6667 323.335 21.6081 323.335 24.0001Z" fill="#40A9FF"/>
</g>
<defs>
<filter id="filter0_d_112185_219850" x="19.7653" y="18.0834" width="10.7994" height="13.8933" filterUnits="userSpaceOnUse" color-interpolation-filters="sRGB">
<feFlood flood-opacity="0" result="BackgroundImageFix"/>
<feColorMatrix in="SourceAlpha" type="matrix" values="0 0 0 0 0 0 0 0 0 0 0 0 0 0 0 0 0 0 127 0" result="hardAlpha"/>
<feOffset dy="0.12283"/>
<feGaussianBlur stdDeviation="0.24566"/>
<feColorMatrix type="matrix" values="0 0 0 0 0 0 0 0 0 0 0 0 0 0 0 0 0 0 0.15 0"/>
<feBlend mode="normal" in2="BackgroundImageFix" result="effect1_dropShadow_112185_219850"/>
<feBlend mode="normal" in="SourceGraphic" in2="effect1_dropShadow_112185_219850" result="shape"/>
</filter>
<linearGradient id="paint0_linear_112185_219850" x1="14.1057" y1="13.3265" x2="40.7242" y2="34.4566" gradientUnits="userSpaceOnUse">
<stop stop-color="#9013FE"/>
<stop offset="1" stop-color="#6610F2"/>
</linearGradient>
<linearGradient id="paint1_linear_112185_219850" x1="21.1854" y1="19.3015" x2="27.135" y2="29.364" gradientUnits="userSpaceOnUse">
<stop stop-color="white"/>
<stop offset="1" stop-color="#F1E5FC"/>
</linearGradient>
<clipPath id="clip0_112185_219850">
<rect width="31" height="31" fill="white" transform="translate(9.31055 9.14502)"/>
</clipPath>
<clipPath id="clip1_112185_219850">
<rect width="26.3918" height="30" fill="white" transform="translate(127 9)"/>
</clipPath>
<clipPath id="clip2_112185_219850">
<rect width="13.6268" height="30" fill="white" transform="translate(249 9)"/>
</clipPath>
<clipPath id="clip3_112185_219850">
<rect width="17.3368" height="26" fill="white" transform="translate(306 11)"/>
</clipPath>
</defs>
</svg>
