<svg width="177" height="36" viewBox="0 0 177 36" fill="none" xmlns="http://www.w3.org/2000/svg">
<path d="M49.553 17C49.0843 17 48.6537 16.886 48.261 16.658C47.881 16.43 47.577 16.1197 47.349 15.727C47.121 15.3343 47.007 14.9037 47.007 14.435V13.523H49.287V14.359C49.287 14.4603 49.3187 14.5427 49.382 14.606C49.4453 14.6693 49.5277 14.701 49.629 14.701H58.027C58.1283 14.701 58.2107 14.6693 58.274 14.606C58.35 14.5427 58.388 14.4603 58.388 14.359V11.642C58.388 11.5533 58.35 11.4773 58.274 11.414C58.2107 11.3507 58.1283 11.319 58.027 11.319H49.553C49.0843 11.319 48.6537 11.205 48.261 10.977C47.881 10.7363 47.577 10.426 47.349 10.046C47.121 9.65333 47.007 9.22267 47.007 8.754V5.885C47.007 5.41633 47.121 4.98567 47.349 4.593C47.577 4.20033 47.881 3.89 48.261 3.662C48.6537 3.434 49.0843 3.32 49.553 3.32H58.122C58.5907 3.32 59.015 3.434 59.395 3.662C59.7877 3.89 60.098 4.20033 60.326 4.593C60.5667 4.98567 60.687 5.41633 60.687 5.885V6.797H58.388V5.961C58.388 5.85967 58.35 5.77733 58.274 5.714C58.2107 5.65067 58.1283 5.619 58.027 5.619H49.629C49.5277 5.619 49.4453 5.65067 49.382 5.714C49.3187 5.77733 49.287 5.85967 49.287 5.961V8.678C49.287 8.76667 49.3187 8.84267 49.382 8.906C49.4453 8.96933 49.5277 9.001 49.629 9.001H58.122C58.5907 9.001 59.015 9.12133 59.395 9.362C59.7877 9.59 60.098 9.90033 60.326 10.293C60.5667 10.673 60.687 11.0973 60.687 11.566V14.435C60.687 14.9037 60.5667 15.3343 60.326 15.727C60.098 16.1197 59.7877 16.43 59.395 16.658C59.015 16.886 58.5907 17 58.122 17H49.553ZM62.7807 17V3.32H75.3397V5.619H65.0797V9.001H73.3447V11.319H65.0797V14.701H75.3397V17H62.7807ZM77.2896 17V3.32H79.8926L88.6706 13.77V3.32H90.9696V17H88.3666L79.5696 6.531V17H77.2896ZM98.1142 17V5.619H92.4142V3.32H106.094V5.619H100.413V17H98.1142ZM107.363 17V3.32H109.624V17H107.363ZM111.579 17V3.32H114.182L122.96 13.77V3.32H125.259V17H122.656L113.859 6.531V17H111.579ZM127.425 17V3.32H139.984V5.619H129.724V9.001H137.989V11.319H129.724V14.701H139.984V17H127.425ZM141.953 17V3.301H144.233V14.701H155.633V17H141.953ZM162.21 17V16.468L167.492 10.16L162.21 3.852V3.32H164.756L169.012 8.355L173.249 3.32H175.795V3.852L170.494 10.16L175.795 16.449V17H173.249L168.993 11.965L164.756 17H162.21Z" fill="white"/>
<path d="M48.261 16.658L48.1967 16.7652L48.1982 16.7661L48.261 16.658ZM47.349 15.727L47.2409 15.7898L47.2409 15.7898L47.349 15.727ZM47.007 13.523V13.398H46.882V13.523H47.007ZM49.287 13.523H49.412V13.398H49.287V13.523ZM49.382 14.606L49.2936 14.6944L49.2936 14.6944L49.382 14.606ZM58.274 14.606L58.1936 14.5096L58.1856 14.5176L58.274 14.606ZM58.274 11.414L58.1852 11.5028L58.194 11.51L58.274 11.414ZM48.261 10.977L48.1941 11.0827L48.1982 11.0851L48.261 10.977ZM47.349 10.046L47.2409 10.1088L47.2418 10.1103L47.349 10.046ZM47.349 4.593L47.2409 4.53023L47.2409 4.53023L47.349 4.593ZM48.261 3.662L48.1982 3.55389L48.1967 3.55481L48.261 3.662ZM59.395 3.662L59.3307 3.7692L59.3322 3.7701L59.395 3.662ZM60.326 4.593L60.2179 4.65578L60.2194 4.65832L60.326 4.593ZM60.687 6.797V6.922H60.812V6.797H60.687ZM58.388 6.797H58.263V6.922H58.388V6.797ZM58.274 5.714L58.1852 5.80275L58.194 5.81003L58.274 5.714ZM49.382 5.714L49.2936 5.62561L49.2936 5.62561L49.382 5.714ZM49.382 8.906L49.2936 8.99439L49.2936 8.99439L49.382 8.906ZM59.395 9.362L59.3281 9.46768L59.3322 9.4701L59.395 9.362ZM60.326 10.293L60.2178 10.3558L60.2204 10.3599L60.326 10.293ZM60.326 15.727L60.2194 15.6617L60.2179 15.6642L60.326 15.727ZM59.395 16.658L59.3322 16.5499L59.3307 16.5508L59.395 16.658ZM49.553 16.875C49.1056 16.875 48.6967 16.7665 48.3238 16.5499L48.1982 16.7661C48.6106 17.0055 49.063 17.125 49.553 17.125V16.875ZM48.3253 16.5508C47.9639 16.334 47.6748 16.0391 47.4571 15.6642L47.2409 15.7898C47.4792 16.2002 47.7981 16.526 48.1967 16.7652L48.3253 16.5508ZM47.4571 15.6642C47.2405 15.2913 47.132 14.8824 47.132 14.435H46.882C46.882 14.925 47.0015 15.3774 47.2409 15.7898L47.4571 15.6642ZM47.132 14.435V13.523H46.882V14.435H47.132ZM47.007 13.648H49.287V13.398H47.007V13.648ZM49.162 13.523V14.359H49.412V13.523H49.162ZM49.162 14.359C49.162 14.4887 49.2037 14.6045 49.2936 14.6944L49.4704 14.5176C49.4337 14.4809 49.412 14.4319 49.412 14.359H49.162ZM49.2936 14.6944C49.3835 14.7843 49.4993 14.826 49.629 14.826V14.576C49.5561 14.576 49.5071 14.5543 49.4704 14.5176L49.2936 14.6944ZM49.629 14.826H58.027V14.576H49.629V14.826ZM58.027 14.826C58.1567 14.826 58.2725 14.7843 58.3624 14.6944L58.1856 14.5176C58.1489 14.5543 58.0999 14.576 58.027 14.576V14.826ZM58.354 14.702C58.4593 14.6143 58.513 14.4964 58.513 14.359H58.263C58.263 14.4243 58.2407 14.471 58.194 14.51L58.354 14.702ZM58.513 14.359V11.642H58.263V14.359H58.513ZM58.513 11.642C58.513 11.5117 58.4548 11.402 58.354 11.318L58.194 11.51C58.2452 11.5527 58.263 11.595 58.263 11.642H58.513ZM58.3624 11.3256C58.2725 11.2357 58.1567 11.194 58.027 11.194V11.444C58.0999 11.444 58.1489 11.4657 58.1856 11.5024L58.3624 11.3256ZM58.027 11.194H49.553V11.444H58.027V11.194ZM49.553 11.194C49.1056 11.194 48.6967 11.0855 48.3238 10.8689L48.1982 11.0851C48.6106 11.3245 49.063 11.444 49.553 11.444V11.194ZM48.3279 10.8714C47.9641 10.641 47.674 10.3447 47.4562 9.98169L47.2418 10.1103C47.48 10.5073 47.7979 10.8317 48.1941 11.0826L48.3279 10.8714ZM47.4571 9.98323C47.2405 9.61026 47.132 9.20136 47.132 8.754H46.882C46.882 9.24397 47.0015 9.6964 47.2409 10.1088L47.4571 9.98323ZM47.132 8.754V5.885H46.882V8.754H47.132ZM47.132 5.885C47.132 5.43764 47.2405 5.02874 47.4571 4.65577L47.2409 4.53023C47.0015 4.9426 46.882 5.39503 46.882 5.885H47.132ZM47.4571 4.65577C47.6748 4.2809 47.9639 3.98604 48.3253 3.76919L48.1967 3.55481C47.7981 3.79396 47.4792 4.11977 47.2409 4.53023L47.4571 4.65577ZM48.3238 3.7701C48.6967 3.55354 49.1056 3.445 49.553 3.445V3.195C49.063 3.195 48.6106 3.31446 48.1982 3.5539L48.3238 3.7701ZM49.553 3.445H58.122V3.195H49.553V3.445ZM58.122 3.445C58.5694 3.445 58.9712 3.55352 59.3307 3.76919L59.4593 3.55481C59.0588 3.31448 58.612 3.195 58.122 3.195V3.445ZM59.3322 3.7701C59.7061 3.98719 60.0008 4.28189 60.2179 4.65577L60.4341 4.53023C60.1952 4.11877 59.8692 3.79281 59.4578 3.5539L59.3322 3.7701ZM60.2194 4.65832C60.4478 5.03097 60.562 5.43896 60.562 5.885H60.812C60.812 5.39371 60.6855 4.94037 60.4326 4.52768L60.2194 4.65832ZM60.562 5.885V6.797H60.812V5.885H60.562ZM60.687 6.672H58.388V6.922H60.687V6.672ZM58.513 6.797V5.961H58.263V6.797H58.513ZM58.513 5.961C58.513 5.82361 58.4593 5.70571 58.354 5.61797L58.194 5.81003C58.2407 5.84895 58.263 5.89572 58.263 5.961H58.513ZM58.3624 5.62561C58.2725 5.53568 58.1567 5.494 58.027 5.494V5.744C58.0999 5.744 58.1489 5.76565 58.1856 5.80239L58.3624 5.62561ZM58.027 5.494H49.629V5.744H58.027V5.494ZM49.629 5.494C49.4993 5.494 49.3835 5.53568 49.2936 5.62561L49.4704 5.80239C49.5071 5.76565 49.5561 5.744 49.629 5.744V5.494ZM49.2936 5.62561C49.2037 5.71554 49.162 5.83126 49.162 5.961H49.412C49.412 5.88807 49.4337 5.83912 49.4704 5.80239L49.2936 5.62561ZM49.162 5.961V8.678H49.412V5.961H49.162ZM49.162 8.678C49.162 8.80019 49.2071 8.90788 49.2936 8.99439L49.4704 8.81761C49.4302 8.77745 49.412 8.73314 49.412 8.678H49.162ZM49.2936 8.99439C49.3835 9.08432 49.4993 9.126 49.629 9.126V8.876C49.5561 8.876 49.5071 8.85435 49.4704 8.81761L49.2936 8.99439ZM49.629 9.126H58.122V8.876H49.629V9.126ZM58.122 9.126C58.568 9.126 58.969 9.24015 59.3281 9.4676L59.4619 9.2564C59.061 9.00251 58.6133 8.876 58.122 8.876V9.126ZM59.3322 9.4701C59.7061 9.68719 60.0008 9.98189 60.2179 10.3558L60.4341 10.2302C60.1952 9.81877 59.8692 9.49281 59.4578 9.2539L59.3322 9.4701ZM60.2204 10.3599C60.4478 10.719 60.562 11.12 60.562 11.566H60.812C60.812 11.0747 60.6855 10.627 60.4316 10.2261L60.2204 10.3599ZM60.562 11.566V14.435H60.812V11.566H60.562ZM60.562 14.435C60.562 14.881 60.4478 15.289 60.2194 15.6617L60.4326 15.7923C60.6855 15.3796 60.812 14.9263 60.812 14.435H60.562ZM60.2179 15.6642C60.0008 16.0381 59.7061 16.3328 59.3322 16.5499L59.4578 16.7661C59.8692 16.5272 60.1952 16.2012 60.4341 15.7898L60.2179 15.6642ZM59.3307 16.5508C58.9712 16.7665 58.5694 16.875 58.122 16.875V17.125C58.612 17.125 59.0588 17.0055 59.4593 16.7652L59.3307 16.5508ZM58.122 16.875H49.553V17.125H58.122V16.875ZM62.7807 17H62.6557V17.125H62.7807V17ZM62.7807 3.32V3.195H62.6557V3.32H62.7807ZM75.3397 3.32H75.4647V3.195H75.3397V3.32ZM75.3397 5.619V5.744H75.4647V5.619H75.3397ZM65.0797 5.619V5.494H64.9547V5.619H65.0797ZM65.0797 9.001H64.9547V9.126H65.0797V9.001ZM73.3447 9.001H73.4697V8.876H73.3447V9.001ZM73.3447 11.319V11.444H73.4697V11.319H73.3447ZM65.0797 11.319V11.194H64.9547V11.319H65.0797ZM65.0797 14.701H64.9547V14.826H65.0797V14.701ZM75.3397 14.701H75.4647V14.576H75.3397V14.701ZM75.3397 17V17.125H75.4647V17H75.3397ZM62.9057 17V3.32H62.6557V17H62.9057ZM62.7807 3.445H75.3397V3.195H62.7807V3.445ZM75.2147 3.32V5.619H75.4647V3.32H75.2147ZM75.3397 5.494H65.0797V5.744H75.3397V5.494ZM64.9547 5.619V9.001H65.2047V5.619H64.9547ZM65.0797 9.126H73.3447V8.876H65.0797V9.126ZM73.2197 9.001V11.319H73.4697V9.001H73.2197ZM73.3447 11.194H65.0797V11.444H73.3447V11.194ZM64.9547 11.319V14.701H65.2047V11.319H64.9547ZM65.0797 14.826H75.3397V14.576H65.0797V14.826ZM75.2147 14.701V17H75.4647V14.701H75.2147ZM75.3397 16.875H62.7807V17.125H75.3397V16.875ZM77.2896 17H77.1646V17.125H77.2896V17ZM77.2896 3.32V3.195H77.1646V3.32H77.2896ZM79.8926 3.32L79.9883 3.2396L79.9508 3.195H79.8926V3.32ZM88.6706 13.77L88.5749 13.8504L88.7956 14.1132V13.77H88.6706ZM88.6706 3.32V3.195H88.5456V3.32H88.6706ZM90.9696 3.32H91.0946V3.195H90.9696V3.32ZM90.9696 17V17.125H91.0946V17H90.9696ZM88.3666 17L88.2709 17.0804L88.3084 17.125H88.3666V17ZM79.5696 6.531L79.6653 6.45058L79.4446 6.18794V6.531H79.5696ZM79.5696 17V17.125H79.6946V17H79.5696ZM77.4146 17V3.32H77.1646V17H77.4146ZM77.2896 3.445H79.8926V3.195H77.2896V3.445ZM79.7969 3.4004L88.5749 13.8504L88.7663 13.6896L79.9883 3.2396L79.7969 3.4004ZM88.7956 13.77V3.32H88.5456V13.77H88.7956ZM88.6706 3.445H90.9696V3.195H88.6706V3.445ZM90.8446 3.32V17H91.0946V3.32H90.8446ZM90.9696 16.875H88.3666V17.125H90.9696V16.875ZM88.4623 16.9196L79.6653 6.45058L79.4739 6.61142L88.2709 17.0804L88.4623 16.9196ZM79.4446 6.531V17H79.6946V6.531H79.4446ZM79.5696 16.875H77.2896V17.125H79.5696V16.875ZM98.1142 17H97.9892V17.125H98.1142V17ZM98.1142 5.619H98.2392V5.494H98.1142V5.619ZM92.4142 5.619H92.2892V5.744H92.4142V5.619ZM92.4142 3.32V3.195H92.2892V3.32H92.4142ZM106.094 3.32H106.219V3.195H106.094V3.32ZM106.094 5.619V5.744H106.219V5.619H106.094ZM100.413 5.619V5.494H100.288V5.619H100.413ZM100.413 17V17.125H100.538V17H100.413ZM98.2392 17V5.619H97.9892V17H98.2392ZM98.1142 5.494H92.4142V5.744H98.1142V5.494ZM92.5392 5.619V3.32H92.2892V5.619H92.5392ZM92.4142 3.445H106.094V3.195H92.4142V3.445ZM105.969 3.32V5.619H106.219V3.32H105.969ZM106.094 5.494H100.413V5.744H106.094V5.494ZM100.288 5.619V17H100.538V5.619H100.288ZM100.413 16.875H98.1142V17.125H100.413V16.875ZM107.363 17H107.238V17.125H107.363V17ZM107.363 3.32V3.195H107.238V3.32H107.363ZM109.624 3.32H109.749V3.195H109.624V3.32ZM109.624 17V17.125H109.749V17H109.624ZM107.488 17V3.32H107.238V17H107.488ZM107.363 3.445H109.624V3.195H107.363V3.445ZM109.499 3.32V17H109.749V3.32H109.499ZM109.624 16.875H107.363V17.125H109.624V16.875ZM111.579 17H111.454V17.125H111.579V17ZM111.579 3.32V3.195H111.454V3.32H111.579ZM114.182 3.32L114.277 3.2396L114.24 3.195H114.182V3.32ZM122.96 13.77L122.864 13.8504L123.085 14.1132V13.77H122.96ZM122.96 3.32V3.195H122.835V3.32H122.96ZM125.259 3.32H125.384V3.195H125.259V3.32ZM125.259 17V17.125H125.384V17H125.259ZM122.656 17L122.56 17.0804L122.597 17.125H122.656V17ZM113.859 6.531L113.954 6.45058L113.734 6.18794V6.531H113.859ZM113.859 17V17.125H113.984V17H113.859ZM111.704 17V3.32H111.454V17H111.704ZM111.579 3.445H114.182V3.195H111.579V3.445ZM114.086 3.4004L122.864 13.8504L123.055 13.6896L114.277 3.2396L114.086 3.4004ZM123.085 13.77V3.32H122.835V13.77H123.085ZM122.96 3.445H125.259V3.195H122.96V3.445ZM125.134 3.32V17H125.384V3.32H125.134ZM125.259 16.875H122.656V17.125H125.259V16.875ZM122.751 16.9196L113.954 6.45058L113.763 6.61142L122.56 17.0804L122.751 16.9196ZM113.734 6.531V17H113.984V6.531H113.734ZM113.859 16.875H111.579V17.125H113.859V16.875ZM127.425 17H127.3V17.125H127.425V17ZM127.425 3.32V3.195H127.3V3.32H127.425ZM139.984 3.32H140.109V3.195H139.984V3.32ZM139.984 5.619V5.744H140.109V5.619H139.984ZM129.724 5.619V5.494H129.599V5.619H129.724ZM129.724 9.001H129.599V9.126H129.724V9.001ZM137.989 9.001H138.114V8.876H137.989V9.001ZM137.989 11.319V11.444H138.114V11.319H137.989ZM129.724 11.319V11.194H129.599V11.319H129.724ZM129.724 14.701H129.599V14.826H129.724V14.701ZM139.984 14.701H140.109V14.576H139.984V14.701ZM139.984 17V17.125H140.109V17H139.984ZM127.55 17V3.32H127.3V17H127.55ZM127.425 3.445H139.984V3.195H127.425V3.445ZM139.859 3.32V5.619H140.109V3.32H139.859ZM139.984 5.494H129.724V5.744H139.984V5.494ZM129.599 5.619V9.001H129.849V5.619H129.599ZM129.724 9.126H137.989V8.876H129.724V9.126ZM137.864 9.001V11.319H138.114V9.001H137.864ZM137.989 11.194H129.724V11.444H137.989V11.194ZM129.599 11.319V14.701H129.849V11.319H129.599ZM129.724 14.826H139.984V14.576H129.724V14.826ZM139.859 14.701V17H140.109V14.701H139.859ZM139.984 16.875H127.425V17.125H139.984V16.875ZM141.953 17H141.828V17.125H141.953V17ZM141.953 3.301V3.176H141.828V3.301H141.953ZM144.233 3.301H144.358V3.176H144.233V3.301ZM144.233 14.701H144.108V14.826H144.233V14.701ZM155.633 14.701H155.758V14.576H155.633V14.701ZM155.633 17V17.125H155.758V17H155.633ZM142.078 17V3.301H141.828V17H142.078ZM141.953 3.426H144.233V3.176H141.953V3.426ZM144.108 3.301V14.701H144.358V3.301H144.108ZM144.233 14.826H155.633V14.576H144.233V14.826ZM155.508 14.701V17H155.758V14.701H155.508ZM155.633 16.875H141.953V17.125H155.633V16.875ZM162.21 17H162.085V17.125H162.21V17ZM162.21 16.468L162.114 16.3878L162.085 16.4226V16.468H162.21ZM167.492 10.16L167.588 10.2402L167.655 10.16L167.588 10.0797L167.492 10.16ZM162.21 3.852H162.085V3.89742L162.114 3.93225L162.21 3.852ZM162.21 3.32V3.195H162.085V3.32H162.21ZM164.756 3.32L164.851 3.23931L164.814 3.195H164.756V3.32ZM169.012 8.355L168.916 8.43569L169.012 8.54888L169.108 8.43548L169.012 8.355ZM173.249 3.32V3.195H173.191L173.153 3.23952L173.249 3.32ZM175.795 3.32H175.92V3.195H175.795V3.32ZM175.795 3.852L175.891 3.93242L175.92 3.89755V3.852H175.795ZM170.494 10.16L170.398 10.0796L170.331 10.1601L170.398 10.2406L170.494 10.16ZM175.795 16.449H175.92V16.4033L175.891 16.3684L175.795 16.449ZM175.795 17V17.125H175.92V17H175.795ZM173.249 17L173.153 17.0807L173.191 17.125H173.249V17ZM168.993 11.965L169.088 11.8843L168.993 11.7711L168.897 11.8845L168.993 11.965ZM164.756 17V17.125H164.814L164.852 17.0805L164.756 17ZM162.335 17V16.468H162.085V17H162.335ZM162.306 16.5482L167.588 10.2402L167.396 10.0797L162.114 16.3878L162.306 16.5482ZM167.588 10.0797L162.306 3.77175L162.114 3.93225L167.396 10.2402L167.588 10.0797ZM162.335 3.852V3.32H162.085V3.852H162.335ZM162.21 3.445H164.756V3.195H162.21V3.445ZM164.66 3.40069L168.916 8.43569L169.107 8.27431L164.851 3.23931L164.66 3.40069ZM169.108 8.43548L173.345 3.40048L173.153 3.23952L168.916 8.27452L169.108 8.43548ZM173.249 3.445H175.795V3.195H173.249V3.445ZM175.67 3.32V3.852H175.92V3.32H175.67ZM175.699 3.77158L170.398 10.0796L170.59 10.2404L175.891 3.93242L175.699 3.77158ZM170.398 10.2406L175.699 16.5296L175.891 16.3684L170.59 10.0794L170.398 10.2406ZM175.67 16.449V17H175.92V16.449H175.67ZM175.795 16.875H173.249V17.125H175.795V16.875ZM173.344 16.9193L169.088 11.8843L168.897 12.0457L173.153 17.0807L173.344 16.9193ZM168.897 11.8845L164.66 16.9195L164.852 17.0805L169.089 12.0455L168.897 11.8845ZM164.756 16.875H162.21V17.125H164.756V16.875Z" fill="white"/>
<path d="M51.1455 26.7275C51.1455 28.3604 53.0146 29.8213 54.6797 30.1328L54.293 30.8418C52.8535 30.5088 51.3335 29.4829 50.7158 28.0703C50.0981 29.4775 48.5835 30.5034 47.1387 30.8418L46.752 30.1328C48.4062 29.8105 50.2646 28.3711 50.2646 26.7275V25.9971H51.1455V26.7275ZM55.1309 32.8721V33.5703H46.3867V32.8721H55.1309ZM60.6953 26.2871V32.4424H56.291V26.2871H60.6953ZM57.1074 26.9639V31.7549H59.8574V26.9639H57.1074ZM63.2842 25.3203V29.1338H64.8848V29.8643H63.2842V34.8701H62.4463V25.3203H63.2842ZM73.1348 30.4873V31.1748H66.5283V26.1475H73.0273V26.8564H67.3877V28.2744H72.8232V28.9512H67.3877V30.4873H73.1348ZM74.1445 32.9258V33.624H65.4004V32.9258H74.1445ZM86.3691 29.5742V30.2295H82.4268V31.1211H85.252V33.1836H79.5801V34.1182H85.542V34.7627H78.7422V32.582H84.4248V31.7549H78.7207V31.1211H81.5996V30.2295H77.6787V29.5742H86.3691ZM82.4268 25.2666V26.1582H85.4883V26.8242H82.4912C82.647 27.7749 84.1401 28.3765 85.8965 28.4893L85.6387 29.1338C84.0435 28.9995 82.604 28.5054 82.0186 27.5977C81.4331 28.5054 79.9937 28.9995 78.3877 29.1338L78.1406 28.4893C79.8862 28.3765 81.3794 27.7749 81.5459 26.8242H78.5703V26.1582H81.5996V25.2666H82.4268ZM95.0596 25.3203V30.4443H94.2217V25.3203H95.0596ZM89.71 30.9277V32.0879H94.2217V30.9277H95.0596V34.7412H88.8721V30.9277H89.71ZM89.71 34.0537H94.2217V32.7646H89.71V34.0537ZM89.9033 25.793C91.3535 25.7822 92.4062 26.6738 92.4062 27.9844C92.4062 29.2842 91.3535 30.1758 89.9033 30.1758C88.4531 30.1758 87.4004 29.2842 87.4004 27.9844C87.4004 26.6738 88.4531 25.7822 89.9033 25.793ZM89.9033 26.502C88.9258 26.4912 88.2168 27.1143 88.2275 27.9844C88.2168 28.8545 88.9258 29.4775 89.9033 29.4775C90.8701 29.4775 91.5791 28.8545 91.5791 27.9844C91.5791 27.1143 90.8701 26.4912 89.9033 26.502ZM105.426 32.9473V33.6455H96.6816V32.9473H100.613V30.8848H97.7129V25.9971H98.5615V27.7266H103.524V25.9971H104.352V30.8848H101.44V32.9473H105.426ZM98.5615 30.1973H103.524V28.4141H98.5615V30.1973ZM113.654 25.3203V28.2314H115.094V28.9404H113.654V32.3672H112.816V25.3203H113.654ZM114.095 33.957V34.666H107.682V31.6367H108.509V33.957H114.095ZM108.874 25.9971C110.303 25.9971 111.377 26.9639 111.388 28.3496C111.377 29.7354 110.303 30.7021 108.874 30.7021C107.445 30.7021 106.36 29.7354 106.371 28.3496C106.36 26.9639 107.445 25.9971 108.874 25.9971ZM108.874 26.7383C107.929 26.7383 107.188 27.4043 107.198 28.3496C107.188 29.2949 107.929 29.9609 108.874 29.9609C109.841 29.9609 110.561 29.2949 110.561 28.3496C110.561 27.4043 109.841 26.7383 108.874 26.7383ZM120.991 26.0615V26.5664C120.98 27.1895 120.98 28.1455 120.744 29.3916L119.896 29.3271C120.126 28.1831 120.148 27.3721 120.164 26.7705H116.232V26.0615H120.991ZM118.531 28.1777V30.2295C119.589 30.1865 120.685 30.1113 121.679 29.9717L121.732 30.5947C119.734 30.9385 117.425 30.9814 115.728 30.9814L115.642 30.2832C116.259 30.2778 116.958 30.2725 117.693 30.251V28.1777H118.531ZM123.183 25.3203V28.4355H124.579V29.1553H123.183V32.5068H122.323V25.3203H123.183ZM123.494 33.957V34.666H117.113V31.8623H117.962V33.957H123.494ZM133.366 25.3203V34.8701H132.561V25.3203H133.366ZM131.433 25.5566V34.376H130.638V29.4561H129.026V28.7686H130.638V25.5566H131.433ZM128.006 28.0488C128.006 29.7031 128.747 31.3467 130.068 32.1094L129.553 32.7324C128.613 32.1685 127.947 31.1372 127.619 29.918C127.27 31.2339 126.577 32.3564 125.621 32.958L125.084 32.3242C126.416 31.5293 127.189 29.7891 127.189 28.0488V27.1465H125.353V26.4482H129.757V27.1465H128.006V28.0488ZM142.229 28.2422V29.499H146.171V30.1865H137.47V29.499H141.401V28.2422H142.229ZM142.239 25.7607C142.239 26.9961 143.937 27.9092 145.677 28.1025L145.376 28.7471C143.872 28.543 142.417 27.8931 141.82 26.8457C141.208 27.8931 139.747 28.543 138.254 28.7471L137.953 28.1025C139.693 27.9092 141.391 26.9961 141.391 25.7607V25.3955H142.239V25.7607ZM145.054 30.9814V33.1514H139.382V34.0967H145.344V34.7627H138.544V32.5176H144.227V31.6367H138.522V30.9814H145.054ZM154.646 25.707V28.1885H148.889V29.4238H154.851V30.1221H148.04V27.5225H153.787V26.3945H148.019V25.707H154.646ZM155.71 31.1318V31.8086H151.735V34.8916H150.897V31.8086H146.966V31.1318H155.71ZM159.749 27.0928C159.749 28.4893 160.705 29.8105 162.091 30.3584L161.618 31.0137C160.565 30.5786 159.749 29.7085 159.352 28.6182C158.938 29.7944 158.079 30.729 156.967 31.1855L156.505 30.5088C157.923 29.9609 158.911 28.5859 158.922 27.0928V25.8682H159.749V27.0928ZM164.4 25.3311V32.4639H163.552V29.4023H161.586V28.7148H163.552V27.4473H161.586V26.749H163.552V25.3311H164.4ZM164.615 33.957V34.666H158.224V31.7227H159.072V33.957H164.615Z" fill="#AEB1B7"/>
<path d="M0 3H12.5217L23.4783 17.1176L16.1739 23.2941L0 3Z" fill="white"/>
<path d="M0 3H12.5217L23.4783 17.1176L16.1739 23.2941L0 3Z" fill="url(#paint0_linear_112_2736)"/>
<path d="M36 3H23.4783L3.57628e-07 33H12.5217L36 3Z" fill="url(#paint1_linear_112_2736)"/>
<path fill-rule="evenodd" clip-rule="evenodd" d="M17.9545 25.9416L23.4785 33H36.0002L30.4763 25.9416H17.9545Z" fill="white"/>
<path fill-rule="evenodd" clip-rule="evenodd" d="M17.9545 25.9416L23.4785 33H36.0002L30.4763 25.9416H17.9545Z" fill="url(#paint2_linear_112_2736)"/>
<defs>
<linearGradient id="paint0_linear_112_2736" x1="6.6" y1="3" x2="24.9346" y2="34.3726" gradientUnits="userSpaceOnUse">
<stop stop-color="#49A0FF"/>
<stop offset="1" stop-color="#00A1EC"/>
</linearGradient>
<linearGradient id="paint1_linear_112_2736" x1="26.4" y1="4.07143" x2="9.70607" y2="53.0141" gradientUnits="userSpaceOnUse">
<stop stop-color="white"/>
<stop offset="1" stop-color="#999999"/>
</linearGradient>
<linearGradient id="paint2_linear_112_2736" x1="30.5999" y1="32.9998" x2="9.5688" y2="-0.322588" gradientUnits="userSpaceOnUse">
<stop stop-color="#007AFF"/>
<stop offset="1" stop-color="#00A1EC"/>
</linearGradient>
</defs>
</svg>
