<svg width="20" height="20" viewBox="0 0 20 20" fill="none" xmlns="http://www.w3.org/2000/svg">
<g id="calendar_month">
<mask id="mask0_246_3683" style="mask-type:alpha" maskUnits="userSpaceOnUse" x="0" y="0" width="20" height="20">
<rect id="Bounding box" width="20" height="20" fill="#D9D9D9"/>
</mask>
<g mask="url(#mask0_246_3683)">
<path id="calendar_month_2" d="M9.26324 11.7308V10.2565H10.7374V11.7308H9.26324ZM5.92991 11.7308V10.2565H7.40408V11.7308H5.92991ZM12.5966 11.7308V10.2565H14.0707V11.7308H12.5966ZM9.26324 15V13.5256H10.7374V15H9.26324ZM5.92991 15V13.5256H7.40408V15H5.92991ZM12.5966 15V13.5256H14.0707V15H12.5966ZM2.91699 17.9167V3.75001H5.5772V1.9873H6.85928V3.75001H13.1735V1.9873H14.4235V3.75001H17.0837V17.9167H2.91699ZM4.16699 16.6667H15.8337V8.5898H4.16699V16.6667ZM4.16699 7.3398H15.8337V5.00001H4.16699V7.3398Z" fill="#B1B1BB"/>
</g>
</g>
</svg>
