<svg width="28" height="28" viewBox="0 0 28 28" fill="none" xmlns="http://www.w3.org/2000/svg">
<mask id="mask0_327_4826" style="mask-type:alpha" maskUnits="userSpaceOnUse" x="0" y="0" width="28" height="28">
<rect width="28" height="28" fill="#D9D9D9"/>
</mask>
<g mask="url(#mask0_327_4826)">
<path d="M13.998 14.2916C13.2755 14.2916 12.6576 14.0343 12.1445 13.5198C11.6316 13.0053 11.3751 12.3869 11.3751 11.6645C11.3751 10.942 11.6323 10.3241 12.1468 9.811C12.6613 9.29806 13.2798 9.04159 14.0021 9.04159C14.7247 9.04159 15.3425 9.29884 15.8557 9.81334C16.3686 10.3278 16.6251 10.9463 16.6251 11.6686C16.6251 12.3912 16.3678 13.009 15.8533 13.5222C15.3388 14.0351 14.7204 14.2916 13.998 14.2916ZM7.58312 10.3427C7.86896 10.3427 8.10871 10.2461 8.30237 10.0528C8.49604 9.85932 8.59287 9.61957 8.59287 9.33354C8.59287 9.04771 8.49623 8.80796 8.30296 8.61429C8.10948 8.42063 7.86973 8.32379 7.58371 8.32379C7.29787 8.32379 7.05812 8.42043 6.86446 8.61371C6.67079 8.80718 6.57396 9.04693 6.57396 9.33296C6.57396 9.61879 6.6706 9.85854 6.86387 10.0522C7.05734 10.2459 7.29709 10.3427 7.58312 10.3427ZM4.95841 23.9166V22.1666H8.676L9.42325 19.1668C7.57291 18.9185 6.02591 18.0876 4.78225 16.6742C3.53858 15.2608 2.91675 13.5916 2.91675 11.6666C2.91675 9.55414 3.65253 7.76214 5.12408 6.29059C6.59564 4.81903 8.38764 4.08325 10.5001 4.08325H17.5001C19.6125 4.08325 21.4045 4.81903 22.8761 6.29059C24.3476 7.76214 25.0834 9.55414 25.0834 11.6666C25.0834 13.5916 24.4616 15.2608 23.2179 16.6742C21.9742 18.0876 20.4272 18.9185 18.5769 19.1668L19.3242 22.1666H23.0417V23.9166H4.95841ZM14.0001 16.0416C15.2086 16.0416 16.2399 15.6146 17.0941 14.7606C17.9481 13.9064 18.3751 12.8751 18.3751 11.6666C18.3751 10.4581 17.9481 9.42678 17.0941 8.57259C16.2399 7.71859 15.2086 7.29159 14.0001 7.29159C12.7916 7.29159 11.7603 7.71859 10.9061 8.57259C10.0521 9.42678 9.62508 10.4581 9.62508 11.6666C9.62508 12.8751 10.0521 13.9064 10.9061 14.7606C11.7603 15.6146 12.7916 16.0416 14.0001 16.0416Z" fill="white"/>
</g>
</svg>
