<svg width="40" height="40" viewBox="0 0 40 40" fill="none" xmlns="http://www.w3.org/2000/svg">
<rect width="40" height="40" rx="20" fill="#382522"/>
<rect x="1" y="1" width="38" height="38" rx="19" stroke="#F12F11" stroke-opacity="0.5" stroke-width="2"/>
<mask id="mask0_327_5236" style="mask-type:alpha" maskUnits="userSpaceOnUse" x="6" y="6" width="28" height="28">
<rect x="6" y="6" width="28" height="28" fill="#D9D9D9"/>
</mask>
<g mask="url(#mask0_327_5236)">
<path d="M20 29.2434C19.5187 29.2434 19.1068 29.0721 18.7642 28.7295C18.4214 28.3867 18.25 27.9747 18.25 27.4934C18.25 27.0122 18.4214 26.6002 18.7642 26.2576C19.1068 25.9148 19.5187 25.7434 20 25.7434C20.4812 25.7434 20.8932 25.9148 21.2358 26.2576C21.5786 26.6002 21.75 27.0122 21.75 27.4934C21.75 27.9747 21.5786 28.3867 21.2358 28.7295C20.8932 29.0721 20.4812 29.2434 20 29.2434ZM18.4072 23.5224V10.1731H21.5928V23.5224H18.4072Z" fill="#FF3516"/>
</g>
</svg>
