<svg width="28" height="28" viewBox="0 0 28 28" fill="none" xmlns="http://www.w3.org/2000/svg">
<g id="clinical_notes">
<mask id="mask0_327_4840" style="mask-type:alpha" maskUnits="userSpaceOnUse" x="0" y="0" width="28" height="28">
<rect id="Bounding box" width="28" height="28" fill="#D9D9D9"/>
</mask>
<g mask="url(#mask0_327_4840)">
<path id="clinical_notes_2" d="M19.8333 18.4534C18.9732 18.4534 18.2422 18.1524 17.6402 17.5504C17.0382 16.9484 16.7372 16.2174 16.7372 15.3573C16.7372 14.4973 17.0382 13.7663 17.6402 13.1643C18.2422 12.5623 18.9732 12.2613 19.8333 12.2613C20.6933 12.2613 21.4243 12.5623 22.0263 13.1643C22.6283 13.7663 22.9293 14.4973 22.9293 15.3573C22.9293 16.2174 22.6283 16.9484 22.0263 17.5504C21.4243 18.1524 20.6933 18.4534 19.8333 18.4534ZM13.2372 25.9807V21.6775C13.979 21.2481 14.7422 20.891 15.5268 20.6062C16.3112 20.3213 17.1252 20.1086 17.9689 19.968L19.8333 22.3124L21.6865 19.968C22.5376 20.0771 23.3553 20.2838 24.1397 20.5881C24.9243 20.8926 25.6875 21.2497 26.4293 21.6594V25.9807H13.2372ZM10.455 23.9166H4.08325V4.08325H23.9166V11.2626C23.3661 10.6838 22.7547 10.2418 22.0823 9.93671C21.4101 9.63163 20.6604 9.47908 19.8333 9.47908C19.7809 9.47908 19.7323 9.48093 19.6874 9.48463C19.6425 9.48852 19.5939 9.49415 19.5416 9.50154V8.593H8.45825V10.3427H16.8717C16.3183 10.6538 15.8318 11.045 15.4122 11.5164C14.9928 11.9875 14.6573 12.5237 14.4059 13.1249H8.45825V14.8749H14.011C13.9737 15.3206 13.9857 15.7622 14.0472 16.1997C14.1084 16.6372 14.2168 17.0669 14.3724 17.4888C14.3051 17.5186 14.2397 17.5466 14.1761 17.5728C14.1125 17.5991 14.0508 17.6272 13.9909 17.6571H8.45825V19.4068H10.455V23.9166Z" fill="#9CCCFF"/>
</g>
</g>
</svg>
