<svg width="28" height="28" viewBox="0 0 28 28" fill="none" xmlns="http://www.w3.org/2000/svg">
<mask id="mask0_327_4837" style="mask-type:alpha" maskUnits="userSpaceOnUse" x="0" y="0" width="28" height="28">
<rect width="28" height="28" fill="#D9D9D9"/>
</mask>
<g mask="url(#mask0_327_4837)">
<path d="M4.35254 23.9167V22.1667H6.41666V3.79175H21.5833V22.1667H23.6475V23.9167H4.35254ZM17.5 22.1667H19.8333V5.54175H17.5V22.1667ZM12.8333 15.032C13.119 15.032 13.3624 14.9315 13.5637 14.7304C13.7647 14.5292 13.8652 14.2857 13.8652 14.0001C13.8652 13.7144 13.7647 13.471 13.5637 13.2697C13.3624 13.0687 13.119 12.9682 12.8333 12.9682C12.5477 12.9682 12.3042 13.0687 12.103 13.2697C11.9019 13.471 11.8014 13.7144 11.8014 14.0001C11.8014 14.2857 11.9019 14.5292 12.103 14.7304C12.3042 14.9315 12.5477 15.032 12.8333 15.032Z" fill="white"/>
</g>
</svg>
