<svg width="32" height="32" viewBox="0 0 32 32" fill="none" xmlns="http://www.w3.org/2000/svg">
<circle cx="16" cy="16" r="16" fill="#C23A31"/>
<mask id="mask0_363_3375" style="mask-type:alpha" maskUnits="userSpaceOnUse" x="6" y="6" width="20" height="20">
<rect x="6" y="6" width="20" height="20" fill="#D9D9D9"/>
</mask>
<g mask="url(#mask0_363_3375)">
<path d="M15.1667 16.8333H16.8333V11.8333H15.1667V16.8333ZM16 19.3333C16.2361 19.3333 16.434 19.2535 16.5937 19.0937C16.7535 18.934 16.8333 18.7361 16.8333 18.5C16.8333 18.2639 16.7535 18.066 16.5937 17.9063C16.434 17.7465 16.2361 17.6667 16 17.6667C15.7639 17.6667 15.566 17.7465 15.4063 17.9063C15.2465 18.066 15.1667 18.2639 15.1667 18.5C15.1667 18.7361 15.2465 18.934 15.4063 19.0937C15.566 19.2535 15.7639 19.3333 16 19.3333ZM16 25L7 16L16 7L25 16L16 25Z" fill="white"/>
</g>
</svg>
