<svg width="32" height="32" viewBox="0 0 32 32" fill="none" xmlns="http://www.w3.org/2000/svg">
<circle cx="16" cy="16" r="16" fill="#5C5C62"/>
<mask id="mask0_363_3374" style="mask-type:alpha" maskUnits="userSpaceOnUse" x="6" y="6" width="20" height="20">
<rect x="6" y="6" width="20" height="20" fill="#D9D9D9"/>
</mask>
<g mask="url(#mask0_363_3374)">
<path d="M14.9584 17.2917L14.7501 18.5001H16.1667L14.9584 17.2917ZM22.5001 24.8334L19.7917 22.1251C19.264 22.6667 18.6772 23.1216 18.0313 23.4897C17.3855 23.8577 16.7084 24.139 16.0001 24.3334C14.0695 23.8473 12.4758 22.7397 11.2188 21.0105C9.96189 19.2813 9.33341 17.3612 9.33341 15.2501V11.6667L7.16675 9.50008L8.33341 8.33341L23.6667 23.6667L22.5001 24.8334ZM21.7084 19.3751L17.4792 15.1251C17.5487 15.014 17.5973 14.8924 17.6251 14.7605C17.6529 14.6286 17.6667 14.4862 17.6667 14.3334C17.6667 13.8751 17.5036 13.4827 17.1772 13.1563C16.8508 12.8299 16.4584 12.6667 16.0001 12.6667C15.8473 12.6667 15.7084 12.6806 15.5834 12.7084C15.4584 12.7362 15.3404 12.7848 15.2292 12.8542L11.6667 9.29175L16.0001 7.66675L22.6667 10.1667V15.2501C22.6667 15.9584 22.5869 16.6598 22.4272 17.3542C22.2674 18.0487 22.0279 18.7223 21.7084 19.3751Z" fill="white"/>
</g>
</svg>
