<svg width="74" height="78" viewBox="0 0 74 78" fill="none" xmlns="http://www.w3.org/2000/svg">
<path d="M8.375 9.75V68.25H26.25L29.5 39L26.25 9.75H8.375Z" fill="#4C5A77"/>
<path d="M26.25 9.75H44.125V68.25H26.25V9.75Z" fill="#31394A"/>
<path d="M44.8887 0H37.625V78H44.8887L55.5 72.7025L58.75 39L55.5 5.2975L44.8887 0Z" fill="#4DBBEB"/>
<path d="M73.375 14.2351L55.5 5.29761V72.7026L73.375 63.7651V14.2351Z" fill="#2488FF"/>
<path d="M50.625 35.75V42.25H55.5L58.75 39L55.5 35.75H50.625Z" fill="#F2F2F2"/>
<path d="M55.5 35.75H60.375V42.25H55.5V35.75Z" fill="#D9D9D9"/>
<path d="M19.75 29.25V35.75H0.25V42.25H19.75V48.75L26.25 42.25L29.5 39L26.25 35.75L19.75 29.25Z" fill="#F2F2F2"/>
<path d="M26.25 35.75V42.25L29.5 39L26.25 35.75Z" fill="#D9D9D9"/>
</svg>
