<svg width="20" height="20" viewBox="0 0 20 20" fill="none" xmlns="http://www.w3.org/2000/svg">
<g id="notifications_active_FILL1_wght300_GRAD0_opsz24 1">
<path id="Vector" d="M3.75019 15.7373V14.4873H5.2566V8.26934C5.2566 7.14861 5.60249 6.1577 6.29425 5.29659C6.98603 4.43548 7.87412 3.88473 8.95852 3.64436V3.12513C8.95852 2.83667 9.06001 2.59095 9.263 2.38796C9.46599 2.18496 9.71171 2.08346 10.0002 2.08346C10.2886 2.08346 10.5343 2.18496 10.7373 2.38796C10.9403 2.59095 11.0418 2.83667 11.0418 3.12513V3.64436C12.1262 3.88473 13.0143 4.43548 13.7061 5.29659C14.3978 6.1577 14.7437 7.14861 14.7437 8.26934V14.4873H16.2501V15.7373H3.75019ZM10.0002 18.077C9.58457 18.077 9.2296 17.9298 8.93527 17.6355C8.64094 17.3412 8.49377 16.9862 8.49377 16.5706H11.5066C11.5066 16.9862 11.3594 17.3412 11.0651 17.6355C10.7707 17.9298 10.4158 18.077 10.0002 18.077ZM2.17969 8.26132C2.17969 6.95791 2.47002 5.76107 3.05069 4.67079C3.63134 3.58052 4.41044 2.67748 5.388 1.96167L6.11877 2.96646C5.30145 3.56688 4.64894 4.32569 4.16123 5.2429C3.67352 6.16009 3.42967 7.16623 3.42967 8.26132H2.17969ZM16.5707 8.26132C16.5707 7.16623 16.3268 6.16009 15.8391 5.2429C15.3514 4.32569 14.6989 3.56688 13.8816 2.96646L14.6123 1.96167C15.5899 2.67748 16.369 3.58052 16.9496 4.67079C17.5303 5.76107 17.8206 6.95791 17.8206 8.26132H16.5707Z" fill="#FF1C45"/>
</g>
</svg>
