<svg width="32" height="32" viewBox="0 0 32 32" fill="none" xmlns="http://www.w3.org/2000/svg">
<circle cx="16" cy="16" r="16" fill="#3682D8"/>
<mask id="mask0_363_3378" style="mask-type:alpha" maskUnits="userSpaceOnUse" x="6" y="6" width="20" height="20">
<rect x="6" y="6" width="20" height="20" fill="#D9D9D9"/>
</mask>
<g mask="url(#mask0_363_3378)">
<path d="M13.7083 24.3334L13.375 21.6667C13.1944 21.5973 13.0243 21.514 12.8646 21.4167C12.7049 21.3195 12.5486 21.2154 12.3958 21.1042L9.91667 22.1459L7.625 18.1876L9.77083 16.5626C9.75694 16.4654 9.75 16.3716 9.75 16.2813V15.7188C9.75 15.6286 9.75694 15.5348 9.77083 15.4376L7.625 13.8126L9.91667 9.85425L12.3958 10.8959C12.5486 10.7848 12.7083 10.6806 12.875 10.5834C13.0417 10.4862 13.2083 10.4029 13.375 10.3334L13.7083 7.66675H18.2917L18.625 10.3334C18.8056 10.4029 18.9757 10.4862 19.1354 10.5834C19.2951 10.6806 19.4514 10.7848 19.6042 10.8959L22.0833 9.85425L24.375 13.8126L22.2292 15.4376C22.2431 15.5348 22.25 15.6286 22.25 15.7188V16.2813C22.25 16.3716 22.2361 16.4654 22.2083 16.5626L24.3542 18.1876L22.0625 22.1459L19.6042 21.1042C19.4514 21.2154 19.2917 21.3195 19.125 21.4167C18.9583 21.514 18.7917 21.5973 18.625 21.6667L18.2917 24.3334H13.7083ZM16.0417 18.9167C16.8472 18.9167 17.5347 18.632 18.1042 18.0626C18.6736 17.4931 18.9583 16.8056 18.9583 16.0001C18.9583 15.1945 18.6736 14.507 18.1042 13.9376C17.5347 13.3681 16.8472 13.0834 16.0417 13.0834C15.2222 13.0834 14.5312 13.3681 13.9688 13.9376C13.4062 14.507 13.125 15.1945 13.125 16.0001C13.125 16.8056 13.4062 17.4931 13.9688 18.0626C14.5312 18.632 15.2222 18.9167 16.0417 18.9167Z" fill="white"/>
</g>
</svg>
