<svg width="32" height="32" viewBox="0 0 32 32" fill="none" xmlns="http://www.w3.org/2000/svg">
<rect width="32" height="32" rx="16" fill="#22B94D"/>
<mask id="mask0_358_3373" style="mask-type:alpha" maskUnits="userSpaceOnUse" x="6" y="6" width="20" height="20">
<rect x="6" y="6" width="20" height="20" fill="#D9D9D9"/>
</mask>
<g mask="url(#mask0_358_3373)">
<path d="M14.7489 18.5003H17.2489L16.7698 15.8128C17.0476 15.6739 17.2663 15.4725 17.426 15.2087C17.5857 14.9448 17.6656 14.6531 17.6656 14.3337C17.6656 13.8753 17.5024 13.483 17.176 13.1566C16.8496 12.8302 16.4573 12.667 15.9989 12.667C15.5406 12.667 15.1482 12.8302 14.8219 13.1566C14.4955 13.483 14.3323 13.8753 14.3323 14.3337C14.3323 14.6531 14.4121 14.9448 14.5719 15.2087C14.7316 15.4725 14.9503 15.6739 15.2281 15.8128L14.7489 18.5003ZM15.9989 24.3337C14.0684 23.8475 12.4746 22.7399 11.2177 21.0107C9.96075 19.2816 9.33228 17.3614 9.33228 15.2503V10.167L15.9989 7.66699L22.6656 10.167V15.2503C22.6656 17.3614 22.0371 19.2816 20.7802 21.0107C19.5232 22.7399 17.9295 23.8475 15.9989 24.3337Z" fill="white"/>
</g>
</svg>
