<svg width="38" height="12" viewBox="0 0 38 12" fill="none" xmlns="http://www.w3.org/2000/svg">
<path d="M8.30682 0.818182V11H7.11364L1.56534 3.00568H1.46591V11H0.232955V0.818182H1.42614L6.99432 8.83239H7.09375V0.818182H8.30682ZM12.862 11.179C12.3781 11.179 11.939 11.0878 11.5446 10.9055C11.1502 10.7199 10.8369 10.4531 10.6049 10.1051C10.3729 9.75379 10.2569 9.32955 10.2569 8.83239C10.2569 8.39489 10.3431 8.04025 10.5154 7.76847C10.6878 7.49337 10.9181 7.27794 11.2065 7.12216C11.4949 6.96638 11.813 6.85038 12.161 6.77415C12.5124 6.6946 12.8654 6.63163 13.22 6.58523C13.684 6.52557 14.0602 6.48082 14.3485 6.45099C14.6402 6.41785 14.8523 6.36316 14.9849 6.28693C15.1208 6.2107 15.1887 6.07812 15.1887 5.8892V5.84943C15.1887 5.3589 15.0545 4.97775 14.786 4.70597C14.5209 4.43419 14.1182 4.2983 13.5779 4.2983C13.0178 4.2983 12.5787 4.42093 12.2605 4.66619C11.9423 4.91146 11.7186 5.1733 11.5893 5.4517L10.4757 5.05398C10.6745 4.58996 10.9397 4.22869 11.2711 3.97017C11.6059 3.70833 11.9705 3.52604 12.3649 3.4233C12.7626 3.31723 13.1537 3.2642 13.5382 3.2642C13.7834 3.2642 14.0652 3.29403 14.3833 3.35369C14.7048 3.41004 15.0147 3.5277 15.313 3.70668C15.6146 3.88565 15.8649 4.15578 16.0637 4.51705C16.2626 4.87831 16.362 5.36222 16.362 5.96875V11H15.1887V9.96591H15.1291C15.0495 10.1316 14.917 10.3089 14.7314 10.4979C14.5458 10.6868 14.2988 10.8475 13.9906 10.9801C13.6824 11.1127 13.3062 11.179 12.862 11.179ZM13.041 10.125C13.505 10.125 13.8961 10.0339 14.2143 9.85156C14.5358 9.66927 14.7778 9.43395 14.9402 9.1456C15.1059 8.85724 15.1887 8.55398 15.1887 8.2358V7.16193C15.139 7.22159 15.0297 7.27628 14.8606 7.32599C14.6949 7.3724 14.5027 7.41383 14.2839 7.45028C14.0685 7.48343 13.858 7.51326 13.6525 7.53977C13.4503 7.56297 13.2863 7.58286 13.1603 7.59943C12.8554 7.6392 12.5704 7.70384 12.3052 7.79332C12.0434 7.8795 11.8313 8.01042 11.6689 8.18608C11.5098 8.35843 11.4302 8.59375 11.4302 8.89205C11.4302 9.29972 11.581 9.60795 11.8826 9.81676C12.1876 10.0223 12.5737 10.125 13.041 10.125ZM18.5036 11V3.36364H19.6371V4.55682H19.7365C19.8956 4.14915 20.1525 3.83262 20.5071 3.60724C20.8617 3.37855 21.2876 3.2642 21.7848 3.2642C22.2886 3.2642 22.7079 3.37855 23.0426 3.60724C23.3807 3.83262 23.6442 4.14915 23.8331 4.55682H23.9126C24.1082 4.16241 24.4015 3.84919 24.7926 3.61719C25.1837 3.38187 25.6527 3.2642 26.1996 3.2642C26.8823 3.2642 27.4408 3.47798 27.875 3.90554C28.3092 4.32978 28.5263 4.991 28.5263 5.8892V11H27.353V5.8892C27.353 5.32576 27.1989 4.92306 26.8906 4.68111C26.5824 4.43916 26.2195 4.31818 25.8018 4.31818C25.2649 4.31818 24.849 4.48059 24.554 4.8054C24.259 5.12689 24.1115 5.53456 24.1115 6.02841V11H22.9183V5.76989C22.9183 5.3357 22.7775 4.98603 22.4957 4.72088C22.214 4.45241 21.8511 4.31818 21.407 4.31818C21.102 4.31818 20.817 4.39938 20.5518 4.56179C20.29 4.72419 20.0779 4.94957 19.9155 5.23793C19.7564 5.52296 19.6768 5.85275 19.6768 6.22727V11H18.5036ZM33.8732 11.1591C33.1374 11.1591 32.5027 10.9967 31.9691 10.6719C31.4388 10.3438 31.0295 9.88636 30.7411 9.29972C30.4561 8.70975 30.3136 8.02367 30.3136 7.24148C30.3136 6.45928 30.4561 5.76989 30.7411 5.1733C31.0295 4.57339 31.4305 4.10606 31.9442 3.77131C32.4613 3.43324 33.0645 3.2642 33.7539 3.2642C34.1516 3.2642 34.5444 3.33049 34.9322 3.46307C35.32 3.59564 35.6729 3.81108 35.9911 4.10938C36.3093 4.40436 36.5629 4.79545 36.7518 5.28267C36.9407 5.76989 37.0352 6.36979 37.0352 7.08239V7.57955H31.1488V6.56534H35.842C35.842 6.13447 35.7558 5.75 35.5835 5.41193C35.4144 5.07386 35.1725 4.80705 34.8576 4.61151C34.546 4.41596 34.1781 4.31818 33.7539 4.31818C33.2866 4.31818 32.8822 4.43419 32.5408 4.66619C32.2028 4.89489 31.9426 5.19318 31.7603 5.56108C31.578 5.92898 31.4869 6.32339 31.4869 6.74432V7.42045C31.4869 7.99716 31.5863 8.48603 31.7852 8.88707C31.9873 9.2848 32.2674 9.58807 32.6254 9.79688C32.9833 10.0024 33.3993 10.1051 33.8732 10.1051C34.1815 10.1051 34.4599 10.062 34.7085 9.97585C34.9603 9.88636 35.1774 9.75379 35.3597 9.57812C35.542 9.39915 35.6829 9.17708 35.7823 8.91193L36.9158 9.23011C36.7965 9.61458 36.596 9.95265 36.3143 10.2443C36.0326 10.5327 35.6845 10.758 35.2702 10.9205C34.8559 11.0795 34.3903 11.1591 33.8732 11.1591Z" fill="#9C9CB0"/>
</svg>
