<svg width="45" height="12" viewBox="0 0 45 12" fill="none" xmlns="http://www.w3.org/2000/svg">
<path d="M6.80114 3.36364C6.74148 2.85985 6.49953 2.46875 6.07528 2.19034C5.65104 1.91193 5.13068 1.77273 4.5142 1.77273C4.06345 1.77273 3.66903 1.84564 3.33097 1.99148C2.99621 2.13731 2.73438 2.33783 2.54545 2.59304C2.35985 2.84825 2.26705 3.13826 2.26705 3.46307C2.26705 3.73485 2.33168 3.96851 2.46094 4.16406C2.59351 4.3563 2.76255 4.51705 2.96804 4.64631C3.17353 4.77225 3.38897 4.87666 3.61435 4.95952C3.83973 5.03906 4.04688 5.10369 4.2358 5.15341L5.26989 5.43182C5.53504 5.50142 5.83002 5.59754 6.15483 5.72017C6.48295 5.8428 6.79616 6.01018 7.09446 6.2223C7.39607 6.43111 7.64465 6.69957 7.8402 7.0277C8.03575 7.35582 8.13352 7.75852 8.13352 8.2358C8.13352 8.78598 7.98935 9.28314 7.70099 9.72727C7.41596 10.1714 6.99834 10.5244 6.44815 10.7862C5.90128 11.0481 5.23674 11.179 4.45455 11.179C3.72538 11.179 3.09399 11.0613 2.56037 10.826C2.03007 10.5907 1.61245 10.2625 1.30753 9.84162C1.00592 9.42069 0.835227 8.93182 0.795455 8.375H2.06818C2.10133 8.75947 2.23059 9.07765 2.45597 9.32955C2.68466 9.57812 2.97301 9.76373 3.32102 9.88636C3.67235 10.0057 4.05019 10.0653 4.45455 10.0653C4.92519 10.0653 5.34777 9.98911 5.7223 9.83665C6.09683 9.68087 6.39347 9.46544 6.61222 9.19034C6.83097 8.91193 6.94034 8.58712 6.94034 8.21591C6.94034 7.87784 6.84588 7.60275 6.65696 7.39062C6.46804 7.1785 6.21946 7.00616 5.91122 6.87358C5.60298 6.741 5.26989 6.625 4.91193 6.52557L3.65909 6.16761C2.86364 5.93892 2.2339 5.61245 1.76989 5.18821C1.30587 4.76397 1.07386 4.20881 1.07386 3.52273C1.07386 2.95265 1.22798 2.45549 1.53622 2.03125C1.84777 1.60369 2.26539 1.27225 2.78906 1.03693C3.31605 0.798295 3.90436 0.678977 4.55398 0.678977C5.21023 0.678977 5.79356 0.796638 6.30398 1.03196C6.81439 1.26397 7.21875 1.58215 7.51705 1.98651C7.81866 2.39086 7.97775 2.8499 7.99432 3.36364H6.80114ZM13.2033 11.1591C12.4675 11.1591 11.8328 10.9967 11.2992 10.6719C10.7689 10.3438 10.3596 9.88636 10.0712 9.29972C9.78616 8.70975 9.64364 8.02367 9.64364 7.24148C9.64364 6.45928 9.78616 5.76989 10.0712 5.1733C10.3596 4.57339 10.7606 4.10606 11.2743 3.77131C11.7914 3.43324 12.3946 3.2642 13.084 3.2642C13.4817 3.2642 13.8745 3.33049 14.2623 3.46307C14.65 3.59564 15.003 3.81108 15.3212 4.10938C15.6394 4.40436 15.8929 4.79545 16.0819 5.28267C16.2708 5.76989 16.3652 6.36979 16.3652 7.08239V7.57955H10.4789V6.56534H15.1721C15.1721 6.13447 15.0859 5.75 14.9135 5.41193C14.7445 5.07386 14.5025 4.80705 14.1877 4.61151C13.8761 4.41596 13.5082 4.31818 13.084 4.31818C12.6167 4.31818 12.2123 4.43419 11.8709 4.66619C11.5328 4.89489 11.2727 5.19318 11.0904 5.56108C10.9081 5.92898 10.8169 6.32339 10.8169 6.74432V7.42045C10.8169 7.99716 10.9164 8.48603 11.1152 8.88707C11.3174 9.2848 11.5975 9.58807 11.9554 9.79688C12.3134 10.0024 12.7293 10.1051 13.2033 10.1051C13.5115 10.1051 13.79 10.062 14.0385 9.97585C14.2904 9.88636 14.5075 9.75379 14.6898 9.57812C14.8721 9.39915 15.013 9.17708 15.1124 8.91193L16.2459 9.23011C16.1266 9.61458 15.9261 9.95265 15.6444 10.2443C15.3626 10.5327 15.0146 10.758 14.6003 10.9205C14.186 11.0795 13.7203 11.1591 13.2033 11.1591ZM20.3972 11.179C19.9133 11.179 19.4741 11.0878 19.0797 10.9055C18.6853 10.7199 18.3721 10.4531 18.1401 10.1051C17.9081 9.75379 17.7921 9.32955 17.7921 8.83239C17.7921 8.39489 17.8783 8.04025 18.0506 7.76847C18.223 7.49337 18.4533 7.27794 18.7417 7.12216C19.03 6.96638 19.3482 6.85038 19.6962 6.77415C20.0475 6.6946 20.4005 6.63163 20.7551 6.58523C21.2192 6.52557 21.5953 6.48082 21.8837 6.45099C22.1754 6.41785 22.3875 6.36316 22.5201 6.28693C22.656 6.2107 22.7239 6.07812 22.7239 5.8892V5.84943C22.7239 5.3589 22.5897 4.97775 22.3212 4.70597C22.056 4.43419 21.6534 4.2983 21.1131 4.2983C20.553 4.2983 20.1138 4.42093 19.7956 4.66619C19.4775 4.91146 19.2537 5.1733 19.1245 5.4517L18.0108 5.05398C18.2097 4.58996 18.4748 4.22869 18.8063 3.97017C19.141 3.70833 19.5056 3.52604 19.9 3.4233C20.2978 3.31723 20.6889 3.2642 21.0733 3.2642C21.3186 3.2642 21.6003 3.29403 21.9185 3.35369C22.24 3.41004 22.5499 3.5277 22.8482 3.70668C23.1498 3.88565 23.4 4.15578 23.5989 4.51705C23.7978 4.87831 23.8972 5.36222 23.8972 5.96875V11H22.7239V9.96591H22.6642C22.5847 10.1316 22.4521 10.3089 22.2665 10.4979C22.0809 10.6868 21.834 10.8475 21.5257 10.9801C21.2175 11.1127 20.8413 11.179 20.3972 11.179ZM20.5762 10.125C21.0402 10.125 21.4313 10.0339 21.7495 9.85156C22.071 9.66927 22.3129 9.43395 22.4753 9.1456C22.641 8.85724 22.7239 8.55398 22.7239 8.2358V7.16193C22.6742 7.22159 22.5648 7.27628 22.3958 7.32599C22.2301 7.3724 22.0378 7.41383 21.8191 7.45028C21.6036 7.48343 21.3932 7.51326 21.1877 7.53977C20.9855 7.56297 20.8214 7.58286 20.6955 7.59943C20.3906 7.6392 20.1055 7.70384 19.8404 7.79332C19.5785 7.8795 19.3664 8.01042 19.204 8.18608C19.0449 8.35843 18.9654 8.59375 18.9654 8.89205C18.9654 9.29972 19.1162 9.60795 19.4178 9.81676C19.7227 10.0223 20.1088 10.125 20.5762 10.125ZM26.0387 11V3.36364H27.1722V4.51705H27.2518C27.391 4.1392 27.6429 3.83262 28.0075 3.5973C28.372 3.36198 28.783 3.24432 29.2404 3.24432C29.3266 3.24432 29.4343 3.24597 29.5636 3.24929C29.6928 3.2526 29.7906 3.25758 29.8569 3.2642V4.45739C29.8171 4.44744 29.726 4.43253 29.5835 4.41264C29.4442 4.38944 29.2968 4.37784 29.141 4.37784C28.7698 4.37784 28.4383 4.45573 28.1467 4.61151C27.8583 4.76397 27.6296 4.97609 27.4606 5.24787C27.2949 5.51634 27.212 5.82292 27.212 6.16761V11H26.0387ZM34.1175 11.1591C33.4016 11.1591 32.7852 10.9901 32.2681 10.652C31.7511 10.3139 31.3533 9.84825 31.0749 9.25497C30.7965 8.66169 30.6573 7.9839 30.6573 7.22159C30.6573 6.44602 30.7998 5.7616 31.0849 5.16832C31.3732 4.57173 31.7743 4.10606 32.288 3.77131C32.805 3.43324 33.4083 3.2642 34.0977 3.2642C34.6346 3.2642 35.1185 3.36364 35.5494 3.5625C35.9802 3.76136 36.3332 4.03977 36.6083 4.39773C36.8834 4.75568 37.0541 5.1733 37.1204 5.65057H35.9471C35.8576 5.30256 35.6587 4.99432 35.3505 4.72585C35.0456 4.45407 34.6346 4.31818 34.1175 4.31818C33.6602 4.31818 33.2591 4.4375 32.9144 4.67614C32.573 4.91146 32.3062 5.24455 32.114 5.67543C31.9251 6.10298 31.8306 6.60511 31.8306 7.18182C31.8306 7.77178 31.9234 8.28551 32.109 8.72301C32.2979 9.16051 32.5631 9.50024 32.9045 9.74219C33.2492 9.98414 33.6535 10.1051 34.1175 10.1051C34.4225 10.1051 34.6992 10.0521 34.9478 9.94602C35.1964 9.83996 35.4068 9.6875 35.5792 9.48864C35.7515 9.28977 35.8742 9.05114 35.9471 8.77273H37.1204C37.0541 9.22348 36.89 9.6295 36.6282 9.99077C36.3697 10.3487 36.0266 10.6338 35.5991 10.8459C35.1748 11.0547 34.681 11.1591 34.1175 11.1591ZM40.0089 6.40625V11H38.8356V0.818182H40.0089V4.55682H40.1083C40.2873 4.16241 40.5558 3.84919 40.9137 3.61719C41.275 3.38187 41.7556 3.2642 42.3555 3.2642C42.8758 3.2642 43.3316 3.36861 43.7227 3.57741C44.1138 3.78291 44.417 4.09943 44.6325 4.52699C44.8512 4.95123 44.9606 5.49148 44.9606 6.14773V11H43.7873V6.22727C43.7873 5.62074 43.6299 5.15175 43.315 4.82031C43.0034 4.48556 42.5709 4.31818 42.0174 4.31818C41.6329 4.31818 41.2882 4.39938 40.9833 4.56179C40.6817 4.72419 40.4431 4.96117 40.2674 5.27273C40.0951 5.58428 40.0089 5.96212 40.0089 6.40625Z" fill="white"/>
</svg>
